<svg width="40" height="40" viewBox="0 0 40 40" fill="none" xmlns="http://www.w3.org/2000/svg">
<circle cx="20" cy="20" r="20" fill="#BEE1FF"/>
<path d="M18.776 26.24C18.488 26.24 18.1893 26.2187 17.88 26.176C17.5813 26.144 17.2933 26.096 17.016 26.032C16.7493 25.9787 16.504 25.92 16.28 25.856C16.056 25.7813 15.8853 25.712 15.768 25.648L16.152 24C16.376 24.1067 16.7013 24.2293 17.128 24.368C17.5547 24.496 18.0827 24.56 18.712 24.56C19.5547 24.56 20.1627 24.4 20.536 24.08C20.9093 23.7493 21.096 23.312 21.096 22.768C21.096 22.416 21.0213 22.1227 20.872 21.888C20.7333 21.6533 20.536 21.4667 20.28 21.328C20.0347 21.1787 19.7467 21.0773 19.416 21.024C19.096 20.96 18.7547 20.928 18.392 20.928H17.736V19.36H18.536C18.7813 19.36 19.0267 19.3387 19.272 19.296C19.528 19.2427 19.7573 19.1573 19.96 19.04C20.1627 18.912 20.328 18.7467 20.456 18.544C20.584 18.3413 20.648 18.08 20.648 17.76C20.648 17.504 20.6 17.2853 20.504 17.104C20.408 16.9227 20.28 16.7733 20.12 16.656C19.9707 16.5387 19.7947 16.4533 19.592 16.4C19.3893 16.3467 19.176 16.32 18.952 16.32C18.472 16.32 18.0453 16.3947 17.672 16.544C17.2987 16.6827 16.968 16.8427 16.68 17.024L15.976 15.584C16.1253 15.488 16.3067 15.3867 16.52 15.28C16.7333 15.1733 16.968 15.072 17.224 14.976C17.4907 14.88 17.7733 14.8053 18.072 14.752C18.3707 14.688 18.6853 14.656 19.016 14.656C19.6347 14.656 20.168 14.7307 20.616 14.88C21.064 15.0293 21.432 15.2427 21.72 15.52C22.0187 15.7867 22.2373 16.1067 22.376 16.48C22.5253 16.8427 22.6 17.2427 22.6 17.68C22.6 18.192 22.456 18.6507 22.168 19.056C21.8907 19.4613 21.528 19.7707 21.08 19.984C21.656 20.1867 22.1307 20.5227 22.504 20.992C22.888 21.4613 23.08 22.064 23.08 22.8C23.08 23.2907 22.9947 23.7493 22.824 24.176C22.6533 24.592 22.392 24.9547 22.04 25.264C21.688 25.5627 21.24 25.8027 20.696 25.984C20.1627 26.1547 19.5227 26.24 18.776 26.24Z" fill="#0C3052"/>
</svg>
