<svg width="30" height="30" viewBox="0 0 30 30" fill="none" xmlns="http://www.w3.org/2000/svg">
<path d="M14.84 22.24C13.9467 22.24 13.14 22.08 12.42 21.76C11.7 21.4267 11.12 20.9333 10.68 20.28C10.2533 19.6267 10.0267 18.8133 10 17.84H11.7C11.7133 18.64 11.9933 19.3333 12.54 19.92C13.0867 20.4933 13.8533 20.78 14.84 20.78C15.8267 20.78 16.5667 20.5067 17.06 19.96C17.5667 19.4133 17.82 18.7533 17.82 17.98C17.82 17.3267 17.66 16.7933 17.34 16.38C17.0333 15.9667 16.6133 15.66 16.08 15.46C15.56 15.26 14.9867 15.16 14.36 15.16H13.32V13.74H14.36C15.2667 13.74 15.9733 13.5333 16.48 13.12C17 12.7067 17.26 12.1267 17.26 11.38C17.26 10.7533 17.0533 10.24 16.64 9.84C16.24 9.42667 15.64 9.22 14.84 9.22C14.0667 9.22 13.4467 9.45333 12.98 9.92C12.5133 10.3733 12.2533 10.9467 12.2 11.64H10.5C10.54 10.88 10.74 10.2067 11.1 9.62C11.4733 9.03333 11.98 8.58 12.62 8.26C13.26 7.92667 14 7.76 14.84 7.76C15.7467 7.76 16.5 7.92 17.1 8.24C17.7133 8.56 18.1733 8.98667 18.48 9.52C18.8 10.0533 18.96 10.64 18.96 11.28C18.96 11.9867 18.7667 12.6333 18.38 13.22C17.9933 13.7933 17.4133 14.18 16.64 14.38C17.4667 14.5533 18.1533 14.9467 18.7 15.56C19.2467 16.1733 19.52 16.98 19.52 17.98C19.52 18.7533 19.34 19.4667 18.98 20.12C18.6333 20.76 18.1133 21.2733 17.42 21.66C16.7267 22.0467 15.8667 22.24 14.84 22.24Z" fill="#3F51B5"/>
<circle cx="15" cy="15" r="14" stroke="#3F51B5" stroke-width="2"/>
</svg>
