<svg width="30" height="30" viewBox="0 0 30 30" fill="none" xmlns="http://www.w3.org/2000/svg">
<path d="M10.26 22V20.82C11.2067 20.0733 12.1 19.32 12.94 18.56C13.7933 17.7867 14.5467 17.0267 15.2 16.28C15.8667 15.5333 16.3867 14.8 16.76 14.08C17.1467 13.36 17.34 12.6667 17.34 12C17.34 11.5067 17.2533 11.0467 17.08 10.62C16.92 10.1933 16.6533 9.85333 16.28 9.6C15.9067 9.33333 15.4 9.2 14.76 9.2C14.1467 9.2 13.6333 9.34 13.22 9.62C12.8067 9.88667 12.4933 10.2467 12.28 10.7C12.08 11.1533 11.98 11.64 11.98 12.16H10.36C10.36 11.24 10.5533 10.4533 10.94 9.8C11.3267 9.13333 11.8533 8.62667 12.52 8.28C13.1867 7.93333 13.94 7.76 14.78 7.76C16.02 7.76 17.0333 8.11333 17.82 8.82C18.62 9.51333 19.02 10.5533 19.02 11.94C19.02 12.7667 18.8133 13.5867 18.4 14.4C17.9867 15.2 17.46 15.98 16.82 16.74C16.18 17.4867 15.4933 18.1867 14.76 18.84C14.04 19.4933 13.3667 20.08 12.74 20.6H19.5V22H10.26Z" fill="#8C9EB6"/>
<circle cx="15" cy="15" r="14" stroke="#8C9EB6" stroke-width="2"/>
</svg>
