<svg width="40" height="40" viewBox="0 0 40 40" fill="none" xmlns="http://www.w3.org/2000/svg">
<circle cx="20" cy="20" r="20" fill="#BEE1FF"/>
<path d="M22.696 17.792C22.696 18.176 22.616 18.5547 22.456 18.928C22.296 19.2907 22.088 19.648 21.832 20C21.5867 20.3413 21.304 20.6773 20.984 21.008C20.664 21.328 20.344 21.6427 20.024 21.952C19.8533 22.112 19.6613 22.304 19.448 22.528C19.2347 22.752 19.032 22.976 18.84 23.2C18.648 23.424 18.4827 23.6427 18.344 23.856C18.2053 24.0587 18.1307 24.2293 18.12 24.368H23.048V26H15.992C15.9813 25.9147 15.976 25.8133 15.976 25.696C15.976 25.568 15.976 25.472 15.976 25.408C15.976 24.896 16.056 24.4267 16.216 24C16.3867 23.5627 16.6053 23.1573 16.872 22.784C17.1387 22.4107 17.4373 22.0587 17.768 21.728C18.0987 21.3973 18.4293 21.072 18.76 20.752C19.016 20.5067 19.2613 20.2667 19.496 20.032C19.7307 19.7973 19.9333 19.568 20.104 19.344C20.2853 19.1093 20.4293 18.8747 20.536 18.64C20.6427 18.3947 20.696 18.144 20.696 17.888C20.696 17.3333 20.536 16.9387 20.216 16.704C19.896 16.4693 19.5067 16.352 19.048 16.352C18.7493 16.352 18.472 16.3947 18.216 16.48C17.96 16.5653 17.7307 16.6667 17.528 16.784C17.336 16.9013 17.1653 17.024 17.016 17.152C16.8667 17.2693 16.7547 17.3653 16.68 17.44L15.72 16.08C16.168 15.6533 16.6907 15.312 17.288 15.056C17.896 14.7893 18.5467 14.656 19.24 14.656C20.424 14.656 21.2933 14.9387 21.848 15.504C22.4133 16.0587 22.696 16.8213 22.696 17.792Z" fill="#0C3052"/>
</svg>
