<svg width="40" height="40" viewBox="0 0 40 40" fill="none" xmlns="http://www.w3.org/2000/svg">
<path d="M20.392 17.296C20.136 17.6053 19.8693 17.936 19.592 18.288C19.3253 18.64 19.064 19.008 18.808 19.392C18.552 19.776 18.3067 20.1707 18.072 20.576C17.8373 20.9707 17.624 21.3653 17.432 21.76H20.392V17.296ZM22.28 14.912V21.76H23.528V23.344H22.28V26H20.392V23.344H15.528V21.968C15.7413 21.4987 16.024 20.96 16.376 20.352C16.7387 19.744 17.1387 19.12 17.576 18.48C18.0133 17.84 18.4773 17.2107 18.968 16.592C19.4587 15.9733 19.9493 15.4133 20.44 14.912H22.28Z" fill="white"/>
<circle cx="20" cy="20" r="19" stroke="white" stroke-width="2"/>
</svg>
